<?xml version="1.0" encoding="UTF-8" standalone="no"?>
<!-- Created with Inkscape (http://www.inkscape.org/) -->

<svg
   width="796.79382"
   height="795.76038"
   viewBox="0 0 210.81836 210.54494"
   version="1.1"
   id="svg1"
   xml:space="preserve"
   sodipodi:docname="science3.svg"
   inkscape:export-filename="math.svg"
   inkscape:export-xdpi="96"
   inkscape:export-ydpi="96"
   xmlns:inkscape="http://www.inkscape.org/namespaces/inkscape"
   xmlns:sodipodi="http://sodipodi.sourceforge.net/DTD/sodipodi-0.dtd"
   xmlns="http://www.w3.org/2000/svg"
   xmlns:svg="http://www.w3.org/2000/svg"><sodipodi:namedview
     id="namedview1"
     pagecolor="#ffffff"
     bordercolor="#000000"
     borderopacity="0.25"
     inkscape:showpageshadow="2"
     inkscape:pageopacity="0.0"
     inkscape:pagecheckerboard="0"
     inkscape:deskcolor="#d1d1d1" /><defs
     id="defs1"><inkscape:path-effect
       effect="fillet_chamfer"
       id="path-effect135"
       is_visible="true"
       lpeversion="1"
       nodesatellites_param="F,0,0,1,0,32.689832,0,1 @ F,0,0,1,0,0,0,1 @ F,0,0,1,0,38.410553,0,1 @ F,0,0,1,0,0,0,1"
       radius="0"
       unit="px"
       method="auto"
       mode="F"
       chamfer_steps="1"
       flexible="false"
       use_knot_distance="true"
       apply_no_radius="true"
       apply_with_radius="true"
       only_selected="false"
       hide_knots="false" /><style
       id="style1">.cls-1{fill:#de3226;}.cls-2{fill:#323150;}.cls-3{fill:#b11a31;}.cls-4{fill:#84b320;}.cls-5{fill:#f4c23f;}.cls-6{fill:#67baeb;}.cls-7{fill:#4b7d27;}.cls-8{fill:#f4a93f;}.cls-9{fill:#46a1f8;}.cls-10{fill:#bddd2a;}.cls-11{fill:#fad564;}.cls-12{fill:#83d0fb;}</style></defs><path
     style="fill:#7137c8;stroke-width:0.264583"
     id="rect1"
     width="209.75975"
     height="209.48734"
     x="1.089661"
     y="1.089661"
     inkscape:path-effect="#path-effect135"
     sodipodi:type="rect"
     d="M 33.779493,1.089661 H 210.84941 V 172.16644 A 38.410553,38.410553 135 0 1 172.43886,210.577 H 1.089661 V 33.779493 A 32.689832,32.689832 135 0 1 33.779493,1.089661 Z"
     transform="translate(-0.56054689,-0.56054692)" /><g
     id="g135"
     transform="matrix(0.26458333,0,0,0.26458333,-175.60512,27.616532)"><g
       id="g12">
	
	
</g><g
       id="g139"
       transform="matrix(1.2845089,0,0,1.2701703,736.77433,32.033667)"><rect
         x="26.122"
         y="56.424"
         style="fill:#808080"
         width="449.306"
         height="296.75101"
         id="rect1-6" /><path
         style="fill:#e4eaef"
         d="m 475.429,56.424 v 15.673 c -1.045,0 -1.045,0 -2.09,0 H 28.212 c -1.045,0 -1.045,0 -2.09,0 V 56.424 Z"
         id="path1-1" /><path
         style="fill:#40596b"
         d="m 195.396,156.735 c 0,17.763 -6.269,33.437 -16.718,45.975 -13.584,16.718 -34.482,28.212 -57.469,28.212 -40.751,0 -74.188,-33.437 -74.188,-74.188 0,-40.751 33.437,-74.188 74.188,-74.188 40.751,0 74.187,33.438 74.187,74.189 z"
         id="path2-3" /><path
         style="fill:#f9f9f9"
         d="M 195.396,156.735 H 121.208 V 82.547 c 40.751,0 74.188,33.437 74.188,74.188 z"
         id="path3-2" /><path
         style="fill:#f9f9f9"
         d="m 195.396,156.735 c 0,17.763 -6.269,33.437 -16.718,45.975 l -57.469,-45.975 z"
         id="path4-2" /><rect
         x="399.151"
         y="159.869"
         style="fill:#f9f9f9"
         width="24.033001"
         height="135.83701"
         id="rect4" /><rect
         x="352.13101"
         y="188.082"
         style="fill:#f2f2f2"
         width="24.033001"
         height="108.669"
         id="rect5" /><rect
         x="306.155"
         y="216.29401"
         style="fill:#f9f9f9"
         width="24.033001"
         height="79.412003"
         id="rect6" /><rect
         x="260.17999"
         y="153.60001"
         style="fill:#f9f9f9"
         width="24.033001"
         height="142.106"
         id="rect7" /><rect
         x="213.159"
         y="246.59599"
         style="fill:#f9f9f9"
         width="24.033001"
         height="49.110001"
         id="rect8" /><rect
         x="181.812"
         y="308.245"
         style="fill:#f9f9f9"
         width="272.71799"
         height="24.033001"
         id="rect9" /><g
         id="g13">
	<path
   style="fill:#f9f9f9"
   d="m 28.212,56.424 h 445.126 c 15.673,0 28.212,-12.539 28.212,-28.212 C 501.55,12.539 489.012,0 473.339,0 H 28.212 C 12.539,0 0,12.539 0,28.212 0,43.885 12.539,56.424 28.212,56.424 Z"
   id="path12" />
	<path
   style="fill:#f9f9f9"
   d="M 473.339,353.176 H 28.212 C 12.539,353.176 0,365.714 0,381.388 0,397.061 12.539,409.6 28.212,409.6 h 445.126 c 15.673,0 28.212,-12.539 28.212,-28.212 10e-4,-15.674 -12.538,-28.212 -28.211,-28.212 z"
   id="path13" />
</g></g></g></svg>
