<?xml version="1.0" encoding="UTF-8" standalone="no"?>
<!-- Created with Inkscape (http://www.inkscape.org/) -->

<svg
   width="796.79382"
   height="795.76038"
   viewBox="0 0 210.81836 210.54494"
   version="1.1"
   id="svg1"
   xml:space="preserve"
   xmlns="http://www.w3.org/2000/svg"
   xmlns:svg="http://www.w3.org/2000/svg"><defs
     id="defs1"><style
       id="style1">.cls-1{fill:#de3226;}.cls-2{fill:#323150;}.cls-3{fill:#b11a31;}.cls-4{fill:#84b320;}.cls-5{fill:#f4c23f;}.cls-6{fill:#67baeb;}.cls-7{fill:#4b7d27;}.cls-8{fill:#f4a93f;}.cls-9{fill:#46a1f8;}.cls-10{fill:#bddd2a;}.cls-11{fill:#fad564;}.cls-12{fill:#83d0fb;}</style></defs><g
     id="layer1"
     transform="translate(-0.56054689,-0.56054692)"><g
       id="g1"
       transform="matrix(0.10325203,0,0,0.10325203,-0.70711882,42.656048)"><g
         id="g2"
         transform="matrix(0.91049355,0,0,0.91985148,134.30806,-326.91101)"><path
           class="cls-1"
           d="m 1023.8,1243.0321 c -117.37453,0 -213.03406,-93.9972 -213.03406,-209.3321 0,-115.33486 95.65953,-209.33206 213.03406,-209.33206 117.3745,0 213.0341,83.53199 213.0341,199.00636 0,115.4742 -95.5176,219.6578 -213.0341,219.6578 z"
           id="path1"
           style="stroke-width:1.4069" /><path
           class="cls-2"
           d="m 672.3,1843.4 c -27.4,0 -52.3,-6.2 -74.3,-18.7 -42.9,-24.3 -71,-70 -83.5,-135.8 -11.5,-60.1 -9.6,-135.1 5.5,-223 30.7,-178.1 112.7,-391 230.9,-599.6 118.2,-208.6 258.8,-388.4 395.8,-506.2 67.6,-58.2 131,-98.3 188.5,-119.4 62.9,-23 116.5,-22.3 159.4,2 42.9,24.3 70.9,69.9 83.5,135.7 11.5,60.1 9.6,135.1 -5.5,223 -30.7,178.1 -112.7,391.1 -230.9,599.7 -118.2,208.6 -258.8,388.3 -395.8,506.2 -67.7,58.1 -131.1,98.3 -188.5,119.3 q -45.9,16.8 -85.1,16.8 z M 1420.1,264 c -21.3,0 -45.1,4.8 -71.2,14.3 -52.9,19.4 -112.2,57.1 -176.1,112.1 -63.9,55 -130.9,126.2 -196.3,209.4 C 908.6,686.1 844.4,782.4 785.7,886 727,989.6 677.4,1094.1 638.2,1196.8 c -37.8,98.8 -64.3,191.7 -78.8,275.9 -14.5,84.2 -16.2,153.4 -5.6,208.7 10.2,53.7 31.7,90.2 63.9,108.5 32.2,18.3 74.6,17.9 125.9,-0.9 53,-19.3 112.2,-57.1 176.2,-112.1 64,-55 130.8,-126.1 196.2,-209.3 68,-86.4 132.2,-182.7 190.9,-286.3 58.7,-103.6 108.3,-208.1 147.5,-310.7 37.7,-98.9 64.2,-191.7 78.7,-276 14.5,-84.3 16.3,-153.3 5.7,-208.7 -10.2,-53.7 -31.8,-90.2 -64,-108.4 -15.8,-9 -34.1,-13.5 -54.7,-13.5 z"
           id="path2" /><path
           class="cls-2"
           d="m 672.3,1843.4 c -27.4,0 -52.3,-6.2 -74.3,-18.7 -42.9,-24.3 -71,-70 -83.5,-135.8 -11.5,-60.1 -9.6,-135.1 5.5,-223 30.7,-178.1 112.7,-391 230.9,-599.6 118.2,-208.6 258.8,-388.4 395.8,-506.2 67.6,-58.2 131,-98.3 188.5,-119.4 62.9,-23 116.5,-22.3 159.4,2 42.9,24.3 70.9,69.9 83.5,135.7 11.5,60.1 9.6,135.1 -5.5,223 -30.7,178.1 -112.7,391.1 -230.9,599.7 -118.2,208.6 -258.8,388.3 -395.8,506.2 -67.7,58.1 -131.1,98.3 -188.5,119.3 q -45.9,16.8 -85.1,16.8 z M 1420.1,264 c -21.3,0 -45.1,4.8 -71.2,14.3 -52.9,19.4 -112.2,57.1 -176.1,112.1 -63.9,55 -130.9,126.2 -196.3,209.4 C 908.6,686.1 844.4,782.4 785.7,886 727,989.6 677.4,1094.1 638.2,1196.8 c -37.8,98.8 -64.3,191.7 -78.8,275.9 -14.5,84.2 -16.2,153.4 -5.6,208.7 10.2,53.7 31.7,90.2 63.9,108.5 32.2,18.3 74.6,17.9 125.9,-0.9 53,-19.3 112.2,-57.1 176.2,-112.1 64,-55 130.8,-126.1 196.2,-209.3 68,-86.4 132.2,-182.7 190.9,-286.3 58.7,-103.6 108.3,-208.1 147.5,-310.7 37.7,-98.9 64.2,-191.7 78.7,-276 14.5,-84.3 16.3,-153.3 5.7,-208.7 -10.2,-53.7 -31.8,-90.2 -64,-108.4 -15.8,-9 -34.1,-13.5 -54.7,-13.5 z"
           id="path3"
           style="fill:#00ff00" /><path
           class="cls-2"
           d="m 1430.2,1837.3 q -37.8,0 -82.4,-15.4 C 1290.1,1801.7 1226,1762.6 1157.5,1705.6 1018.6,1589.9 875.2,1412.4 753.6,1205.8 632,999.2 546.7,787.5 513.1,609.9 496.6,522.3 493.5,447.3 504,387 c 11.5,-66 38.9,-112.1 81.4,-137.1 42.5,-25 96.1,-26.4 159.3,-4.4 57.8,20.1 121.9,59.2 190.4,116.3 138.9,115.6 282.3,293.1 403.8,499.8 121.5,206.7 207,418.3 240.5,595.8 16.6,87.7 19.6,162.7 9.1,222.9 -11.5,66 -38.8,112.1 -81.3,137.1 q -33.9,20 -77,19.9 z M 662.5,270.1 c -21.5,0 -40.6,4.7 -56.8,14.3 -31.9,18.8 -52.9,55.6 -62.3,109.5 -9.6,55.5 -6.6,125.7 9.1,208.6 15.7,82.9 43.8,176.4 83.1,274.6 40.9,102 92.2,205.8 152.5,308.4 60.3,102.6 126.1,197.9 195.4,283.1 66.7,82.2 133.9,151.5 199.6,206.2 65.7,54.7 124.7,90.8 177.9,109.3 53.2,18.5 94,17.6 125.9,-1.2 31.9,-18.8 52.8,-55.6 62.2,-109.5 9.7,-55.5 6.7,-125.7 -9,-208.6 -15.7,-82.9 -43.8,-176.4 -83.2,-274.6 -40.8,-102 -92.1,-205.7 -152.4,-308.4 C 1244.2,779.1 1178.4,684 1109.1,598.7 1042.3,516.6 975.2,447.2 909.5,392.5 843.8,337.8 784.8,301.8 731.6,283.3 706.3,274.5 683.2,270.1 662.5,270.1 Z"
           id="path4"
           style="fill:#ffff00" /><path
           class="cls-2"
           d="m 1028.5,1373.2 c -232.1,0 -450.1,-31.7 -615.8,-89.7 -84.1,-29.5 -150.6,-64.3 -197.6,-103.6 -51.3,-42.9 -77.6,-89.7 -78,-138.9 -0.4,-49.2 25.1,-96.5 75.8,-140.3 46.3,-40 112.2,-75.9 195.9,-106.7 169.6,-62.5 395,-97.9 634.8,-99.8 239.8,-1.9 465.7,29.9 636.2,89.6 84.2,29.5 150.7,64.4 197.6,103.6 51.4,43 77.7,89.7 78.1,139 0.4,49.3 -25.1,96.4 -75.8,140.2 -46.4,40 -112.3,75.9 -195.9,106.7 -169.6,62.5 -395,97.9 -634.8,99.9 z m 15.2,-659 0.2,20 C 924.8,735.1 809.5,744.4 701,761.8 596.5,778.5 502.9,802 422.6,831.6 342.3,861.2 281.7,894.2 239.1,931 c -42.6,36.8 -62.3,72.6 -62,109.6 0.3,37 21.7,73.6 63.7,108.6 42,35 105.5,68.7 185.2,96.5 79.7,27.8 174.6,50.3 279.4,65.3 108.7,15.7 224.3,23.1 343.3,22.2 119,-0.9 234.4,-10.3 342.9,-27.7 104.5,-16.7 198.1,-40.2 278.3,-69.7 80.2,-29.5 141,-62.6 183.6,-99.5 42.6,-36.9 62.3,-72.6 62,-109.6 -0.3,-37 -21.8,-73.5 -63.7,-108.6 -41.9,-35.1 -105.6,-68.6 -185.2,-96.5 -79.6,-27.9 -174.7,-50.2 -279.4,-65.3 -108.8,-15.6 -224.3,-23.1 -343.3,-22.1 z"
           id="path5"
           style="fill:#ff7f2a" /><path
           class="cls-3"
           d="M 1025.651,927.58397 A 119.07304,107.96703 0 1 0 1144.724,1035.551 119.07304,107.96703 0 0 0 1025.651,927.58397 Z"
           id="path6"
           style="stroke-width:1.48215" /><circle
           class="cls-4"
           cx="1488.1"
           cy="254.2"
           r="83.599998"
           id="circle6" /><circle
           class="cls-5"
           cx="1494.5"
           cy="1795.8"
           r="83.599998"
           id="circle7" /><circle
           class="cls-6"
           cx="178.10001"
           cy="1019.5"
           r="83.599998"
           id="circle8" /><path
           class="cls-7"
           d="m 1512.7,313 a 83.6,83.6 0 0 1 -70.1,-129 83.6,83.6 0 1 0 115.6,115.6 83.2,83.2 0 0 1 -45.5,13.4 z"
           id="path8" /><path
           class="cls-8"
           d="m 1519.2,1854.7 a 83.5,83.5 0 0 1 -70.1,-129 83.6,83.6 0 1 0 115.5,115.6 83.1,83.1 0 0 1 -45.4,13.4 z"
           id="path9" /><path
           class="cls-9"
           d="m 202.8,1078.4 a 83.6,83.6 0 0 1 -70.2,-129 83.6,83.6 0 1 0 115.6,115.5 83.2,83.2 0 0 1 -45.4,13.5 z"
           id="path10" /><circle
           class="cls-10"
           cx="1528.9"
           cy="232.10001"
           r="39.700001"
           id="circle10" /><circle
           class="cls-11"
           cx="1530.6"
           cy="1765.8"
           r="41.599998"
           id="circle11" /><circle
           class="cls-12"
           cx="207.60001"
           cy="975.79999"
           r="35.099998"
           id="circle12" /></g></g></g><path
     style="fill:#7137c8;stroke-width:0.264583"
     id="rect1"
     width="209.75975"
     height="209.48734"
     x="1.089661"
     y="1.089661"
     d="M 33.779493,1.089661 H 210.84941 V 172.16644 A 38.410553,38.410553 135 0 1 172.43886,210.577 H 1.089661 V 33.779493 A 32.689832,32.689832 135 0 1 33.779493,1.089661 Z"
     transform="translate(-0.56054689,-0.56054692)" /><g
     id="g140"
     transform="matrix(0.20670573,0,0,0.20670573,104.76975,80.002651)"><path
       d="m 103.39454,317.06195 v -16.3 H -97.008379 v 16.3 c 0,22.4 -4.982991,44.6 -14.732321,65.2 l -18.74038,39.7 h 267.13167 l -18.63206,-39.7 c -9.641,-20.6 -14.62399,-42.8 -14.62399,-65.2 z"
       fill="#d5d9cf"
       id="path1-5"
       style="fill:#808080;stroke-width:1.0408" /><path
       d="m 145.85829,427.46195 h -285.33042 l 22.31513,-47.4 c 9.42436,-20 14.1907,-41.2 14.1907,-63 v -21.8 h 212.31876 v 21.8 c 0,21.8 4.76634,43 14.19069,63 z m -267.13167,-11 h 249.04124 l -15.0573,-32 c -10.07431,-21.4 -15.165623,-44.1 -15.165623,-67.4 v -10.8 H -91.050455 v 10.8 c 0,23.3 -5.091317,46 -15.165625,67.4 z"
       fill="#333336"
       id="path2-33"
       style="stroke-width:1.0408" /><path
       d="m 373.77598,300.76195 h -741.16581 c -19.71531,0 -35.74754,-14.8 -35.74754,-33 v -440.7 c 0,-18.2 16.03223,-33 35.74754,-33 h 741.05749 c 19.71531,0 35.74754,14.8 35.74754,33 v 440.6 c 0.10833,18.3 -15.9239,33.1 -35.63922,33.1 z"
       fill="#68a240"
       id="path3-9"
       style="fill:#ffffff;stroke-width:1.0408" /><path
       d="m 373.77598,306.26195 h -741.16581 c -22.96509,0 -41.70547,-17.3 -41.70547,-38.5 v -440.7 c 0,-21.2 18.74038,-38.5 41.70547,-38.5 h 741.05749 c 22.96509,0 41.70547,17.3 41.70547,38.5 v 440.6 c 0.10832,21.3 -18.63206,38.6 -41.59715,38.6 z m -741.16581,-506.7 c -16.46553,0 -29.78962,12.3 -29.78962,27.5 v 440.6 c 0,15.2 13.32409,27.5 29.78962,27.5 h 741.05749 c 16.46553,0 29.78962,-12.3 29.78962,-27.5 v -440.6 c 0,-15.2 -13.32409,-27.5 -29.78962,-27.5 z"
       fill="#333336"
       id="path4-5"
       style="stroke-width:1.0408" /><path
       d="m -339.55007,-153.43805 h 685.4863 v 347.2 h -685.4863 z"
       fill="#d5d9cf"
       id="path5-9"
       style="fill:#808080;stroke-width:1.0408" /><path
       d="m 351.89415,199.26195 h -697.40214 v -358.2 h 697.40214 z m -685.4863,-11 H 339.9783 v -336.2 h -673.57045 z"
       fill="#333336"
       id="path6-1"
       style="stroke-width:1.0408" /><path
       d="m 3.193078,249.06195 m -27.839756,0 a 27.839756,25.7 0 1 0 55.679512,0 27.839756,25.7 0 1 0 -55.679512,0 z"
       fill="#ffd632"
       id="path7"
       style="fill:#7137c8;stroke-width:1.0408" /><path
       d="m 3.193078,280.16195 c -18.632055,0 -33.797681,-14 -33.797681,-31.2 0,-17.2 15.165626,-31.2 33.797681,-31.2 18.632055,0 33.797681,14 33.797681,31.2 0,17.2 -15.165626,31.2 -33.797681,31.2 z m 0,-51.3 c -12.0241749,0 -21.881832,9.1 -21.881832,20.2 0,11.1 9.8576571,20.2 21.881832,20.2 12.024175,0 21.881832,-9.1 21.881832,-20.2 0,-11.1 -9.857657,-20.2 -21.881832,-20.2 z"
       fill="#333336"
       id="path8-6"
       style="stroke-width:1.0408" /><path
       d="m 238.80191,259.56195 h -53.51299 c -5.95793,0 -10.72427,-4.5 -10.72427,-9.9 v -1.7 c 0,-5.5 4.87467,-9.9 10.72427,-9.9 h 53.51299 c 5.95792,0 10.72426,4.5 10.72426,9.9 v 1.7 c 0,5.5 -4.76634,9.9 -10.72426,9.9 z"
       fill="#ffd632"
       id="path9-8"
       style="fill:#8d5fd3;stroke-width:1.0408" /><path
       d="m 238.80191,265.06195 h -53.51299 c -9.20771,0 -16.68219,-6.9 -16.68219,-15.4 v -1.7 c 0,-8.5 7.47448,-15.4 16.68219,-15.4 h 53.51299 c 9.2077,0 16.68219,6.9 16.68219,15.4 v 1.7 c 0,8.5 -7.47449,15.4 -16.68219,15.4 z m -53.40467,-21.5 c -2.59982,0 -4.76634,2 -4.76634,4.4 v 1.7 c 0,2.4 2.16652,4.4 4.76634,4.4 h 53.513 c 2.59982,0 4.76634,-2 4.76634,-4.4 v -1.7 c 0,-2.4 -2.16652,-4.4 -4.76634,-4.4 z"
       fill="#333336"
       id="path10-4"
       style="stroke-width:1.0408" /><path
       d="m 340.51993,259.56195 h -53.51299 c -5.95793,0 -10.72427,-4.5 -10.72427,-9.9 v -1.7 c 0,-5.5 4.87467,-9.9 10.72427,-9.9 h 53.51299 c 5.95793,0 10.72426,4.5 10.72426,9.9 v 1.7 c 0,5.5 -4.87466,9.9 -10.72426,9.9 z"
       fill="#ffd632"
       id="path11"
       style="fill:#8d5fd3;stroke-width:1.0408" /><path
       d="m 340.51993,265.06195 h -53.51299 c -9.20771,0 -16.68219,-6.9 -16.68219,-15.4 v -1.7 c 0,-8.5 7.47448,-15.4 16.68219,-15.4 h 53.51299 c 9.2077,0 16.68219,6.9 16.68219,15.4 v 1.7 c 0,8.5 -7.47449,15.4 -16.68219,15.4 z m -53.51299,-21.5 c -2.59983,0 -4.76634,2 -4.76634,4.4 v 1.7 c 0,2.4 2.16651,4.4 4.76634,4.4 h 53.51299 c 2.59982,0 4.76634,-2 4.76634,-4.4 v -1.7 c 0,-2.4 -2.16652,-4.4 -4.76634,-4.4 z"
       fill="#333336"
       id="path12-0"
       style="stroke-width:1.0408" /><path
       d="M 181.28086,462.06195 H -174.8947 v -19.6 c 0,-11.3 9.96598,-20.5 22.20681,-20.5 h 311.76194 c 12.24082,0 22.20681,9.2 22.20681,20.5 z"
       fill="#d8a128"
       id="path13-3"
       style="fill:#ffffff;stroke-width:1.0408" /><path
       d="m 187.23878,467.56195 h -368.09141 v -25.1 c 0,-14.3 12.67413,-26 28.16474,-26 h 311.76194 c 15.4906,0 28.16473,11.7 28.16473,26 z m -356.17556,-11 H 51.597295 175.32293 v -14.1 c 0,-8.3 -7.25783,-15 -16.24888,-15 h -311.76194 c -8.99105,0 -16.24889,6.7 -16.24889,15 z"
       fill="#333336"
       id="path14"
       style="fill:#000000;stroke-width:1.0408" /></g></svg>
