<?xml version="1.0" encoding="UTF-8" standalone="no"?>
<!-- Created with Inkscape (http://www.inkscape.org/) -->

<svg
   width="796.79382"
   height="795.76038"
   viewBox="0 0 210.81836 210.54494"
   version="1.1"
   id="svg1"
   xml:space="preserve"
   sodipodi:docname="science3.svg"
   inkscape:export-filename="comp.svg"
   inkscape:export-xdpi="96"
   inkscape:export-ydpi="96"
   xmlns:inkscape="http://www.inkscape.org/namespaces/inkscape"
   xmlns:sodipodi="http://sodipodi.sourceforge.net/DTD/sodipodi-0.dtd"
   xmlns="http://www.w3.org/2000/svg"
   xmlns:svg="http://www.w3.org/2000/svg"><sodipodi:namedview
     id="namedview1"
     pagecolor="#ffffff"
     bordercolor="#000000"
     borderopacity="0.25"
     inkscape:showpageshadow="2"
     inkscape:pageopacity="0.0"
     inkscape:pagecheckerboard="0"
     inkscape:deskcolor="#d1d1d1" /><defs
     id="defs1"><inkscape:path-effect
       effect="fillet_chamfer"
       id="path-effect135"
       is_visible="true"
       lpeversion="1"
       nodesatellites_param="F,0,0,1,0,32.689832,0,1 @ F,0,0,1,0,0,0,1 @ F,0,0,1,0,38.410553,0,1 @ F,0,0,1,0,0,0,1"
       radius="0"
       unit="px"
       method="auto"
       mode="F"
       chamfer_steps="1"
       flexible="false"
       use_knot_distance="true"
       apply_no_radius="true"
       apply_with_radius="true"
       only_selected="false"
       hide_knots="false" /><style
       id="style1">.cls-1{fill:#de3226;}.cls-2{fill:#323150;}.cls-3{fill:#b11a31;}.cls-4{fill:#84b320;}.cls-5{fill:#f4c23f;}.cls-6{fill:#67baeb;}.cls-7{fill:#4b7d27;}.cls-8{fill:#f4a93f;}.cls-9{fill:#46a1f8;}.cls-10{fill:#bddd2a;}.cls-11{fill:#fad564;}.cls-12{fill:#83d0fb;}</style></defs><path
     style="fill:#7137c8;stroke-width:0.264583"
     id="rect1"
     width="209.75975"
     height="209.48734"
     x="1.089661"
     y="1.089661"
     inkscape:path-effect="#path-effect135"
     sodipodi:type="rect"
     d="M 33.779493,1.089661 H 210.84941 V 172.16644 A 38.410553,38.410553 135 0 1 172.43886,210.577 H 1.089661 V 33.779493 A 32.689832,32.689832 135 0 1 33.779493,1.089661 Z"
     transform="translate(-0.56054689,-0.56054692)" /><g
     id="g142"
     transform="matrix(1.135904,0,0,1.0547947,-4.7878188,-9.5166899)"><path
       d="m 57.18147,164.40638 v -16.80497 h -9.956044 v 16.80497 l 4.05549,7.57291 c 0.365359,0.68994 1.461437,0.68994 1.826796,0 z"
       fill="#d8a128"
       id="path1-6"
       style="fill:#ffffff;stroke-width:0.173231" /><path
       d="m 52.212582,173.39203 c -0.785523,0 -1.479705,-0.39426 -1.826797,-1.03491 l -4.165097,-7.75362 v -17.90558 h 11.96552 v 17.92201 l -4.165097,7.75361 c -0.328824,0.62423 -1.023006,1.01849 -1.808529,1.01849 z m -3.964149,-9.18278 3.964149,7.37579 h 0.01827 l 3.964149,-7.39222 v -15.70434 h -7.946566 z"
       fill="#333336"
       id="path2-1"
       style="fill:#ffffff;stroke-width:0.173231" /><path
       d="m 57.18147,163.35504 h -9.956044 v -40.7886 c 0,-1.77413 1.607582,-3.21972 3.580522,-3.21972 h 2.795 c 1.97294,0 3.580522,1.44559 3.580522,3.21972 z"
       fill="#d5d9cf"
       id="path3-4"
       style="fill:#ffffff;stroke-width:0.173231" /><path
       d="m 58.186208,164.25853 h -11.96552 v -41.69209 c 0,-2.26694 2.064281,-4.12321 4.58526,-4.12321 h 2.795 c 2.520979,0 4.58526,1.85627 4.58526,4.12321 z m -9.937775,-1.80698 h 7.946566 v -39.88511 c 0,-1.28132 -1.150882,-2.31623 -2.575783,-2.31623 h -2.795 c -1.424901,0 -2.575783,1.03491 -2.575783,2.31623 z"
       fill="#333336"
       id="path4-9"
       style="fill:#ffffff;stroke-width:0.173231" /><path
       d="m 57.18147,126.45967 h -9.956044 v -3.89323 c 0,-1.77413 1.607582,-3.21972 3.580522,-3.21972 h 2.795 c 1.97294,0 3.580522,1.44559 3.580522,3.21972 z"
       fill="#d8a128"
       id="path5-8"
       style="fill:#ffffff;stroke-width:0.173231" /><path
       d="m 58.186208,127.36317 h -11.96552 v -4.79673 c 0,-2.26694 2.064281,-4.12321 4.58526,-4.12321 h 2.795 c 2.520979,0 4.58526,1.85627 4.58526,4.12321 z m -9.937775,-1.80699 h 7.946566 v -2.98974 c 0,-1.28132 -1.150882,-2.31623 -2.575783,-2.31623 h -2.795 c -1.424901,0 -2.575783,1.03491 -2.575783,2.31623 z m 6.083233,44.18902 h -4.2199 l 1.205686,2.23409 c 0.365359,0.68994 1.461437,0.68994 1.826796,0 z m 35.111037,3.48255 c -0.548039,0 -1.004738,-0.41067 -1.004738,-0.90349 v -12.02467 c 0,-0.49281 0.456699,-0.90349 1.004738,-0.90349 0.548039,0 1.004738,0.41068 1.004738,0.90349 v 12.02467 c 0,0.49282 -0.456699,0.90349 -1.004738,0.90349 z"
       fill="#333336"
       id="path6-3"
       style="fill:#ffffff;stroke-width:0.173231" /><path
       d="m 86.757311,42.024155 c 0,-3.827525 -3.452646,-6.932255 -7.709083,-6.932255 -4.256436,0 -7.709082,3.10473 -7.709082,6.932255 0,2.349081 1.297025,4.402474 3.269966,5.667365 v 16.903531 h 8.549409 V 47.888645 c 2.155621,-1.232036 3.59879,-3.400419 3.59879,-5.86449 z"
       fill="#ffd632"
       id="path7-0"
       style="fill:#ffffff;stroke-width:0.173231" /><path
       d="M 84.16326,65.482116 H 73.604374 V 48.135052 c -2.064281,-1.478443 -3.269967,-3.728961 -3.269967,-6.110897 0,-4.320339 3.909346,-7.835748 8.713821,-7.835748 4.804476,0 8.713822,3.515409 8.713822,7.835748 0,2.52978 -1.333562,4.878862 -3.59879,6.340877 z m -8.54941,-1.806985 h 6.539933 V 47.379404 l 0.474967,-0.262835 c 1.954673,-1.117045 3.142091,-3.022594 3.142091,-5.108841 0,-3.318283 -3.014215,-6.028762 -6.704345,-6.028762 -3.690129,0 -6.704344,2.710479 -6.704344,6.028762 0,1.95483 1.059542,3.79467 2.849803,4.928143 l 0.420163,0.262834 v 16.476426 z"
       fill="#333336"
       id="path8-9"
       style="fill:#ffffff;stroke-width:0.173231" /><path
       d="M 62.424377,82.418502 V 141.11269 H 42.859382 v 11.1376 h 4.292973 c 0.730718,-1.90555 2.740195,-3.28543 5.115031,-3.28543 2.374836,0 4.384312,1.36346 5.115031,3.28543 H 71.30261 V 82.418502 Z"
       fill="#ffd632"
       id="path9-0"
       style="fill:#ffffff;stroke-width:0.173231" /><path
       d="M 72.28908,153.15378 H 56.63343 l -0.237483,-0.6078 c -0.602843,-1.59343 -2.283496,-2.67762 -4.165097,-2.67762 -1.881601,0 -3.543986,1.06776 -4.165097,2.67762 l -0.237484,0.6078 H 41.818108 V 140.20919 H 61.40137 V 81.515009 H 72.270812 V 153.15378 Z M 58.040064,151.3468 H 70.297871 V 83.321995 H 63.447383 V 142.01618 H 43.86412 v 9.33062 h 2.594052 c 1.059542,-1.98769 3.288234,-3.28543 5.790946,-3.28543 2.484444,0 4.731404,1.29774 5.790946,3.28543 z"
       fill="#333336"
       id="path10-2"
       style="fill:#ffffff;stroke-width:0.173231" /><path
       d="m 86.373684,82.418502 h 8.859965 v 75.712708 c 0,3.4497 -3.105555,6.24231 -6.941828,6.24231 -1.059542,0 -1.936405,-0.77207 -1.936405,-1.74127 V 82.418502 Z"
       fill="#ffd632"
       id="path11-5"
       style="fill:#ffffff;stroke-width:0.173231" /><path
       d="m 88.291821,165.26059 c -1.625849,0 -2.941143,-1.18276 -2.941143,-2.64477 V 81.515009 h 10.869441 v 76.616201 c 0.01827,3.92609 -3.543986,7.12938 -7.928298,7.12938 z M 87.378422,83.321995 v 79.310255 c 0,0.45996 0.420164,0.83778 0.931667,0.83778 3.269966,0 5.93709,-2.39836 5.93709,-5.33882 V 83.321995 Z"
       fill="#333336"
       id="path12-2"
       style="fill:#ffffff;stroke-width:0.173231" /><path
       d="m 96.731622,82.418502 c 0.730719,-1.872694 1.096079,-3.893233 1.059543,-5.97948 C 97.571949,67.305529 89.241755,59.88046 79.084764,59.781898 68.50761,59.666907 59.903397,67.338384 59.903397,76.816846 c 0,1.971257 0.365359,3.860379 1.059542,5.618083 l 13.189474,26.250581 c 1.826797,3.63039 7.562939,3.63039 9.389736,0 z"
       fill="#68a240"
       id="path13-5"
       style="fill:#ffffff;stroke-width:0.173231" /><path
       d="m 78.847281,112.29948 c -2.447908,0 -4.603528,-1.24847 -5.608267,-3.25258 l -13.207741,-26.283428 -0.01827,-0.03285 c -0.730719,-1.905549 -1.114346,-3.893233 -1.114346,-5.913772 0,-4.829581 2.100816,-9.363472 5.93709,-12.763891 3.818005,-3.400419 8.878233,-5.223832 14.267283,-5.17455 5.169836,0.04928 10.065651,1.905548 13.774049,5.207404 3.708398,3.301856 5.809214,7.687904 5.918822,12.336785 0.0548,2.151956 -0.328823,4.287485 -1.114346,6.308024 l -0.03654,0.08213 -13.189474,26.217728 c -1.004738,2.02053 -3.160358,3.269 -5.608266,3.269 z M 61.894606,82.073532 75.065811,108.29125 c 0.675915,1.34703 2.137353,2.20124 3.78147,2.20124 1.644117,0 3.105555,-0.83778 3.781469,-2.20124 L 95.799956,82.073532 c 0.694183,-1.806986 1.023006,-3.696107 0.98647,-5.63451 -0.09134,-4.188922 -1.991208,-8.11501 -5.334247,-11.088323 -3.343038,-2.973313 -7.72735,-4.632454 -12.385683,-4.681736 -4.822743,-0.04928 -9.389736,1.593433 -12.824114,4.648882 -3.434378,3.055449 -5.334247,7.129381 -5.334247,11.482574 0,1.806986 0.328824,3.581117 0.986471,5.273113 z"
       fill="#333336"
       id="path14-7"
       style="fill:#ffffff;stroke-width:0.173231" /><path
       d="m 78.847281,76.800419 m -9.170521,0 a 9.1705205,8.2464264 0 1 0 18.341041,0 9.1705205,8.2464264 0 1 0 -18.341041,0 z"
       fill="#ffd632"
       id="path15"
       style="fill:#ffffff;stroke-width:0.173231" /><path
       d="m 78.847281,85.950338 c -5.608267,0 -10.175259,-4.106786 -10.175259,-9.149919 0,-5.043134 4.566992,-9.14992 10.175259,-9.14992 5.608266,0 10.175259,4.106786 10.175259,9.14992 0,5.043133 -4.566993,9.149919 -10.175259,9.149919 z m 0,-16.476426 c -4.493921,0 -8.165782,3.285429 -8.165782,7.342934 0,4.057504 3.653593,7.342933 8.165782,7.342933 4.512188,0 8.165782,-3.285429 8.165782,-7.342933 0,-4.057505 -3.653594,-7.342934 -8.165782,-7.342934 z"
       fill="#333336"
       id="path16"
       style="fill:#8d5fd3;stroke-width:0.173231" /><path
       d="m 118.50704,96.529419 c 0.32882,-0.01643 0.67592,-0.01643 1.02301,-0.01643 12.44048,0 22.5244,9.067781 22.5244,20.254671 0,11.18689 -10.10218,20.23824 -22.5244,20.23824 -0.34709,0 -0.67592,0 -1.02301,-0.0164 v 14.60374 c 0.32882,0 0.67592,0.0164 1.02301,0.0164 21.41006,0 38.74636,-15.60578 38.74636,-34.84197 0,-19.236188 -17.35457,-34.841974 -38.74636,-34.841974 -0.34709,0 -0.67592,0 -1.02301,0.01643 z"
       fill="#68a240"
       id="path17"
       style="fill:#ffffff;stroke-width:0.173231" /><path
       d="m 119.53005,152.59526 c -0.34709,0 -0.69419,0 -1.04128,-0.0164 l -1.07781,-0.0164 v -16.60785 l 1.15089,0.0493 c 0.34709,0.0164 0.65764,0.0164 0.9682,0.0164 11.80111,0 21.41006,-8.64067 21.41006,-19.25261 0,-10.61193 -9.60895,-19.26904 -21.41006,-19.26904 -0.31056,0 -0.62111,0 -0.9682,0.01643 l -1.15089,0.04928 V 80.956486 l 1.07781,-0.03285 c 0.34709,0 0.69419,-0.01643 1.04128,-0.01643 21.97636,0 39.86071,16.082174 39.86071,35.844024 -0.0183,19.77828 -17.88435,35.84403 -39.86071,35.84403 z m 0.0731,-14.60373 v 12.61605 c 20.71588,-0.0493 37.55894,-15.21154 37.55894,-33.85635 0,-18.644806 -16.84306,-33.807059 -37.55894,-33.856341 v 12.616047 c 12.98853,0.04928 23.52914,9.560594 23.52914,21.240294 0,11.6797 -10.54061,21.20745 -23.52914,21.2403 z"
       fill="#333336"
       id="path18"
       style="fill:#ffffff;stroke-width:0.173231" /><path
       d="m 122.34331,116.76766 m -8.58594,0 a 8.5859454,7.7207577 0 1 0 17.17189,0 8.5859454,7.7207577 0 1 0 -17.17189,0 z"
       fill="#ffd632"
       id="path19"
       style="fill:#ffffff;stroke-width:0.173231" /><path
       d="m 122.34331,125.47405 c -5.33424,0 -9.68202,-3.90966 -9.68202,-8.70639 0,-4.79673 4.34778,-8.70639 9.68202,-8.70639 5.33425,0 9.68203,3.90966 9.68203,8.70639 0,4.79673 -4.34778,8.70639 -9.68203,8.70639 z m 0,-15.44152 c -4.12856,0 -7.47159,3.0226 -7.47159,6.7187 0,3.71254 3.3613,6.7187 7.47159,6.7187 4.1103,0 7.4716,-3.02259 7.4716,-6.7187 0,-3.6961 -3.3613,-6.7187 -7.4716,-6.7187 z"
       fill="#333336"
       id="path20"
       style="fill:#ffffff;stroke-width:0.173231" /><path
       d="m 78.847281,76.800419 m -4.092025,0 a 4.0920251,3.6796803 0 1 0 8.18405,0 4.0920251,3.6796803 0 1 0 -8.18405,0 z"
       fill="#d5d9cf"
       id="path21"
       style="fill:#8d5fd3;stroke-width:0.173231" /><path
       d="m 41.233533,157.11273 h -2.630588 c -1.370098,0 -2.484444,-1.00206 -2.484444,-2.2341 v -16.64069 c 0,-1.23204 1.114346,-2.23409 2.484444,-2.23409 h 2.630588 c 1.370097,0 2.484443,1.00205 2.484443,2.23409 v 16.64069 c 0.01827,1.23204 -1.096078,2.2341 -2.484443,2.2341 z"
       fill="#68a240"
       id="path23"
       style="fill:#ffffff;stroke-width:0.173231" /><path
       d="m 41.233533,158.01622 h -2.630588 c -1.936405,0 -3.489182,-1.41274 -3.489182,-3.13759 v -16.64069 c 0,-1.74128 1.571045,-3.13759 3.489182,-3.13759 h 2.630588 c 1.936404,0 3.489182,1.41274 3.489182,3.13759 v 16.64069 c 0.01827,1.72485 -1.552778,3.13759 -3.489182,3.13759 z m -2.630588,-21.12531 c -0.822059,0 -1.479705,0.59138 -1.479705,1.3306 v 16.65712 c 0,0.73923 0.657646,1.3306 1.479705,1.3306 h 2.630588 c 0.822058,0 1.479705,-0.59137 1.479705,-1.3306 v -16.64069 c 0,-0.73922 -0.657647,-1.3306 -1.479705,-1.3306 h -2.630588 z"
       fill="#333336"
       id="path24"
       style="fill:#ffffff;stroke-width:0.173231" /><path
       d="M 107.5828,157.96694 V 75.551956 c 0,-0.788503 0.71245,-1.445589 1.60758,-1.445589 h 12.62316 c 0.87687,0 1.60759,0.640659 1.60759,1.445589 v 82.398554 c 0,0.7885 -0.71246,1.44559 -1.60759,1.44559 h -12.62316 c -0.89513,0 -1.60758,-0.64066 -1.60758,-1.42916 z"
       fill="#68a240"
       id="path25"
       style="fill:#ffffff;stroke-width:0.173231" /><path
       d="m 121.64913,160.39815 h -12.31261 c -1.57104,0 -2.8498,-1.1499 -2.8498,-2.56263 V 75.6998 c 0,-1.412734 1.27876,-2.562634 2.8498,-2.562634 h 12.31261 c 1.57105,0 2.84981,1.1499 2.84981,2.562634 v 82.11929 c 0,1.42916 -1.27876,2.57906 -2.84981,2.57906 z M 109.33652,75.108423 c -0.36536,0 -0.65765,0.262834 -0.65765,0.591377 v 82.11929 c 0,0.32855 0.29229,0.59138 0.65765,0.59138 h 12.31261 c 0.36536,0 0.65765,-0.26283 0.65765,-0.59138 V 75.6998 c 0,-0.328543 -0.29229,-0.591377 -0.65765,-0.591377 z"
       fill="#333336"
       id="path26"
       style="fill:#ffffff;stroke-width:0.173231" /><path
       d="m 113.75737,83.009879 h -6.17457 c -0.43844,0 -0.80379,-0.328543 -0.80379,-0.722794 0,-0.394252 0.36535,-0.722795 0.80379,-0.722795 h 6.17457 c 0.43843,0 0.80379,0.328543 0.80379,0.722795 0,0.394251 -0.36536,0.722794 -0.80379,0.722794 z m -2.13735,5.782355 h -4.03722 c -0.43844,0 -0.80379,-0.328543 -0.80379,-0.722795 0,-0.394251 0.36535,-0.722794 0.80379,-0.722794 h 4.03722 c 0.43843,0 0.80379,0.328543 0.80379,0.722794 0,0.394252 -0.36536,0.722795 -0.80379,0.722795 z m 2.13735,5.765927 h -6.17457 c -0.43844,0 -0.80379,-0.328543 -0.80379,-0.722794 0,-0.394251 0.36535,-0.722794 0.80379,-0.722794 h 6.17457 c 0.43843,0 0.80379,0.328543 0.80379,0.722794 0,0.394251 -0.36536,0.722794 -0.80379,0.722794 z m -2.13735,5.765929 h -4.03722 c -0.43844,0 -0.80379,-0.328544 -0.80379,-0.722795 0,-0.394252 0.36535,-0.722795 0.80379,-0.722795 h 4.03722 c 0.43843,0 0.80379,0.328543 0.80379,0.722795 0,0.394251 -0.36536,0.722795 -0.80379,0.722795 z m 2.13735,5.76593 h -6.17457 c -0.43844,0 -0.80379,-0.32855 -0.80379,-0.7228 0,-0.39425 0.36535,-0.72279 0.80379,-0.72279 h 6.17457 c 0.43843,0 0.80379,0.32854 0.80379,0.72279 0,0.39425 -0.36536,0.7228 -0.80379,0.7228 z m -2.13735,5.76592 h -4.03722 c -0.43844,0 -0.80379,-0.32854 -0.80379,-0.72279 0,-0.39425 0.36535,-0.72279 0.80379,-0.72279 h 4.03722 c 0.43843,0 0.80379,0.32854 0.80379,0.72279 0,0.39425 -0.36536,0.72279 -0.80379,0.72279 z m 2.13735,5.76593 h -6.17457 c -0.43844,0 -0.80379,-0.32854 -0.80379,-0.72279 0,-0.39425 0.36535,-0.7228 0.80379,-0.7228 h 6.17457 c 0.43843,0 0.80379,0.32855 0.80379,0.7228 0,0.39425 -0.36536,0.72279 -0.80379,0.72279 z m -2.13735,5.76593 h -4.03722 c -0.43844,0 -0.80379,-0.32854 -0.80379,-0.7228 0,-0.39425 0.36535,-0.72279 0.80379,-0.72279 h 4.03722 c 0.43843,0 0.80379,0.32854 0.80379,0.72279 0,0.39426 -0.36536,0.7228 -0.80379,0.7228 z m 2.13735,5.76593 h -6.17457 c -0.43844,0 -0.80379,-0.32855 -0.80379,-0.7228 0,-0.39425 0.36535,-0.72279 0.80379,-0.72279 h 6.17457 c 0.43843,0 0.80379,0.32854 0.80379,0.72279 0,0.39425 -0.36536,0.7228 -0.80379,0.7228 z m -2.13735,5.76592 h -4.03722 c -0.43844,0 -0.80379,-0.32854 -0.80379,-0.72279 0,-0.39425 0.36535,-0.72279 0.80379,-0.72279 h 4.03722 c 0.43843,0 0.80379,0.32854 0.80379,0.72279 0,0.39425 -0.36536,0.72279 -0.80379,0.72279 z m 2.13735,5.76593 h -6.17457 c -0.43844,0 -0.80379,-0.32854 -0.80379,-0.72279 0,-0.39425 0.36535,-0.7228 0.80379,-0.7228 h 6.17457 c 0.43843,0 0.80379,0.32855 0.80379,0.7228 0,0.39425 -0.36536,0.72279 -0.80379,0.72279 z m -2.13735,5.76593 h -4.03722 c -0.43844,0 -0.80379,-0.32854 -0.80379,-0.7228 0,-0.39425 0.36535,-0.72279 0.80379,-0.72279 h 4.03722 c 0.43843,0 0.80379,0.32854 0.80379,0.72279 0,0.39426 -0.36536,0.7228 -0.80379,0.7228 z"
       fill="#333336"
       id="path27"
       style="fill:#ffffff;stroke-width:0.173231" /><path
       d="m 113.75737,152.21744 h -6.17457 c -0.43844,0 -0.80379,-0.32855 -0.80379,-0.7228 0,-0.39425 0.36535,-0.72279 0.80379,-0.72279 h 6.17457 c 0.43843,0 0.80379,0.32854 0.80379,0.72279 0,0.39425 -0.36536,0.7228 -0.80379,0.7228 z"
       fill="#333336"
       id="path28"
       style="fill:#ffffff;stroke-width:0.173231" /><path
       d="m 152.9787,117.62187 c -0.43843,0 -0.78552,-0.31211 -0.80379,-0.70637 -0.0183,-0.39425 0.32882,-0.72279 0.78552,-0.73922 l 5.29771,-0.13141 h 0.0183 c 0.43843,0 0.78552,0.31211 0.80379,0.70636 0.0183,0.39425 -0.32882,0.7228 -0.78552,0.73922 l -5.29771,0.13142 z m 3.78147,8.87066 c -0.0548,0 -0.12788,0 -0.18268,-0.0164 l -4.53046,-0.98563 c -0.43843,-0.0986 -0.69418,-0.47638 -0.58457,-0.87064 0.10961,-0.39425 0.52977,-0.62423 0.9682,-0.52566 l 4.53046,0.98562 c 0.43843,0.0986 0.69418,0.47639 0.58457,0.87064 -0.10961,0.32855 -0.43843,0.5421 -0.78552,0.5421 z m -4.07376,8.34499 c -0.12787,0 -0.25575,-0.0329 -0.38363,-0.0821 l -3.96415,-1.95483 c -0.38362,-0.19712 -0.52977,-0.62423 -0.31055,-0.98563 0.21922,-0.34497 0.69418,-0.47638 1.09608,-0.27926 l 3.96415,1.95483 c 0.38362,0.19713 0.52977,0.62423 0.31055,0.98563 -0.14614,0.22998 -0.42016,0.3614 -0.71245,0.3614 z m -6.32072,7.12938 c -0.20094,0 -0.40189,-0.0657 -0.54803,-0.19713 l -4.07376,-3.49898 c -0.32883,-0.27926 -0.32883,-0.73922 -0.0183,-1.01848 0.31056,-0.29569 0.82206,-0.29569 1.13261,-0.0164 l 4.07376,3.49898 c 0.32882,0.27926 0.32882,0.73922 0.0183,1.01849 -0.16441,0.13141 -0.38363,0.21355 -0.58458,0.21355 z m -8.16578,5.3881 c -0.27402,0 -0.52977,-0.13141 -0.69418,-0.34497 l -2.61232,-3.86038 c -0.23748,-0.34497 -0.10961,-0.7885 0.27402,-0.98563 0.38363,-0.21355 0.87686,-0.0986 1.09608,0.24641 l 2.61232,3.86038 c 0.23748,0.34497 0.1096,0.7885 -0.27402,0.98563 -0.10961,0.0657 -0.25575,0.0986 -0.4019,0.0986 z m -9.44454,3.31829 c -0.34709,0 -0.65764,-0.19713 -0.76725,-0.52567 l -1.3701,-4.23821 c -0.12788,-0.37782 0.12788,-0.7885 0.54804,-0.88706 0.42016,-0.11499 0.87686,0.11499 0.98647,0.49281 l 1.3701,4.23821 c 0.12787,0.37782 -0.12788,0.7885 -0.54804,0.88706 -0.0548,0.0329 -0.14615,0.0329 -0.21922,0.0329 z m 21.97637,-40.59148 c -0.34709,0 -0.65765,-0.19712 -0.76726,-0.52567 -0.12787,-0.37782 0.12788,-0.7885 0.54804,-0.88706 l 6.17458,-1.62629 c 0.42016,-0.11499 0.87686,0.11499 0.98647,0.49282 0.12787,0.37782 -0.12788,0.7885 -0.54804,0.88706 l -6.17458,1.62629 c -0.0731,0.0164 -0.14614,0.0329 -0.21921,0.0329 z m -2.00948,-7.70433 c -0.27402,0 -0.52977,-0.13142 -0.69418,-0.34497 -0.23748,-0.34497 -0.10961,-0.7885 0.27402,-0.98563 l 4.25644,-2.332651 c 0.38362,-0.213553 0.87686,-0.09856 1.09607,0.246407 0.23749,0.34497 0.10961,0.788503 -0.27402,0.985629 l -4.25643,2.332655 c -0.10961,0.0657 -0.25575,0.0986 -0.4019,0.0986 z m -5.48039,-6.193031 c -0.20095,0 -0.40189,-0.06571 -0.54804,-0.197126 -0.32882,-0.279262 -0.32882,-0.739222 -0.0183,-1.018483 l 3.52572,-3.33471 c 0.31056,-0.295689 0.82206,-0.295689 1.13262,-0.01643 0.32882,0.279261 0.32882,0.739221 0.0183,1.018483 l -3.52571,3.318283 c -0.16442,0.147844 -0.38363,0.22998 -0.58458,0.22998 z m -7.0697,-4.665309 c -0.12788,0 -0.25575,-0.03285 -0.38363,-0.08214 -0.38363,-0.197126 -0.52977,-0.624231 -0.31056,-0.985629 l 2.53925,-4.172494 c 0.21922,-0.34497 0.69419,-0.476387 1.09608,-0.279262 0.38363,0.197126 0.52977,0.624232 0.31056,0.985629 l -2.55752,4.156067 c -0.14614,0.246408 -0.42016,0.377825 -0.69418,0.377825 z"
       fill="#333336"
       id="path29"
       style="fill:#ffffff;stroke-width:0.173231" /><path
       d="m 152.21144,109.68756 c -0.34709,0 -0.65764,-0.19712 -0.76725,-0.52567 -0.12788,-0.37782 0.12788,-0.7885 0.54804,-0.88706 l 4.69487,-1.23204 c 0.42016,-0.11499 0.87686,0.11499 0.98647,0.49282 0.12787,0.37782 -0.12788,0.7885 -0.54804,0.88706 l -4.69487,1.23204 c -0.0548,0.0164 -0.14614,0.0329 -0.21922,0.0329 z M 128.11599,88.348701 c -0.0548,0 -0.12787,0 -0.18268,-0.01643 -0.43843,-0.09856 -0.69418,-0.476387 -0.58457,-0.870639 l 1.20568,-4.451756 c 0.10961,-0.394251 0.54804,-0.624231 0.96821,-0.525668 0.43843,0.09856 0.69418,0.476387 0.58457,0.870638 l -1.20568,4.451756 c -0.0913,0.312116 -0.42017,0.542096 -0.78553,0.542096 z"
       fill="#333336"
       id="path30"
       style="fill:#ffffff;stroke-width:0.173231" /></g></svg>
