<?xml version="1.0" encoding="UTF-8" standalone="no"?>
<!-- Created with Inkscape (http://www.inkscape.org/) -->

<svg
   width="100mm"
   height="100mm"
   viewBox="0 0 100 100"
   version="1.1"
   id="svg1"
   xml:space="preserve"
   xmlns="http://www.w3.org/2000/svg"
   xmlns:svg="http://www.w3.org/2000/svg"><defs
     id="defs1" /><g
     id="layer1"><path
       style="fill:#ffffff;stroke-width:0.264583"
       d="m 146.27027,15.225869 c -12.23166,13.187259 -12.35908,39.306949 -0.0635,52.430502 12.29561,13.123553 37.01326,13.250964 49.24492,0.06344 C 207.68339,54.532289 207.42857,28.030887 195.13296,14.907338 182.83735,1.7837888 158.50193,2.03861 146.27027,15.225869 Z"
       id="path15"
       transform="matrix(0.98299922,0,0,0.70416534,-115.78215,11.093991)" /><g
       id="g18"
       transform="matrix(2.9812133,0,0,2.9402589,2.9473063,2.3235651)"
       style="fill:#9955ff"><g
         id="g1"
         style="fill:#9955ff">
	<path
   d="m 23,28 c -1.1,0 -2.1,-0.7 -2.5,-1.8 0,-0.1 0,-0.2 -0.1,-0.2 h -8.9 c 0,0.1 0,0.2 -0.1,0.2 -0.3,1.1 -1.3,1.8 -2.4,1.8 -0.6,0 -1,0.4 -1,1 0,0.6 0.4,1 1,1 h 14 c 0.6,0 1,-0.4 1,-1 0,-0.6 -0.4,-1 -1,-1 z"
   id="path1-0"
   style="fill:#9955ff" />
</g><path
         d="M 27,3 H 5 C 3.3,3 2,4.3 2,6 v 15 c 0,1.7 1.3,3 3,3 h 6.9 8.1 7 c 1.7,0 3,-1.3 3,-3 V 6 C 30,4.3 28.7,3 27,3 Z M 12,19 C 8.7,19 6,16.3 6,13 6,10 8.2,7.6 11,7.1 V 13 c 0,0.6 0.4,1 1,1 h 5.9 C 17.4,16.8 15,19 12,19 Z m 1,-7 V 7.1 c 2.5,0.4 4.5,2.4 4.9,4.9 z m 12,6 h -4 c -0.6,0 -1,-0.4 -1,-1 0,-0.6 0.4,-1 1,-1 h 4 c 0.6,0 1,0.4 1,1 0,0.6 -0.4,1 -1,1 z m 0,-4 h -4 c -0.6,0 -1,-0.4 -1,-1 0,-0.6 0.4,-1 1,-1 h 4 c 0.6,0 1,0.4 1,1 0,0.6 -0.4,1 -1,1 z m 0,-4 H 21 C 20.4,10 20,9.6 20,9 20,8.4 20.4,8 21,8 h 4 c 0.6,0 1,0.4 1,1 0,0.6 -0.4,1 -1,1 z"
         id="path2-8"
         style="fill:#9955ff" /></g></g><style
     type="text/css"
     id="style1">
	.st0{fill:none;stroke:#000000;stroke-width:2;stroke-linecap:round;stroke-linejoin:round;stroke-miterlimit:10;}
</style></svg>
