<?xml version="1.0" encoding="UTF-8" standalone="no"?>
<!-- Uploaded to: SVG Repo, www.svgrepo.com, Generator: SVG Repo Mixer Tools -->

<svg
   width="100"
   height="100"
   viewBox="0 0 256.25 256.25"
   data-name="Layer 2"
   id="Layer_2"
   version="1.1"
   sodipodi:docname="math signs.svg"
   inkscape:export-filename="..\cores\Academy\app\static\multiply.svg"
   inkscape:export-xdpi="96"
   inkscape:export-ydpi="96"
   xmlns:inkscape="http://www.inkscape.org/namespaces/inkscape"
   xmlns:sodipodi="http://sodipodi.sourceforge.net/DTD/sodipodi-0.dtd"
   xmlns="http://www.w3.org/2000/svg"
   xmlns:svg="http://www.w3.org/2000/svg">
  <sodipodi:namedview
     id="namedview33"
     pagecolor="#ffffff"
     bordercolor="#000000"
     borderopacity="0.25"
     inkscape:showpageshadow="2"
     inkscape:pageopacity="0.0"
     inkscape:pagecheckerboard="0"
     inkscape:deskcolor="#d1d1d1" />
  <defs
     id="defs1">
    <style
       id="style1">.cls-1{fill:#67baeb;}.cls-2{fill:#f4c23f;}.cls-3{fill:#46a1f8;}.cls-4{fill:#f4a93f;}.cls-5{fill:#4d4c78;}.cls-6{fill:#83d0fb;}.cls-7{fill:#fad564;}</style>
  </defs>
  <title
     id="title1" />
  <g
     id="g35"
     transform="matrix(0.57013941,0,0,0.54237096,246.86417,-203.26406)">
    <rect
       class="cls-1"
       height="337.20068"
       rx="50.724468"
       ry="50.724468"
       transform="matrix(0.68090167,0.73237485,-0.68090167,0.73237485,0,0)"
       width="337.17838"
       x="97.176994"
       y="399.45172"
       id="rect4"
       style="stroke-width:0.557412" />
    <rect
       class="cls-1"
       height="337.20068"
       rx="50.724468"
       ry="50.724468"
       transform="matrix(0.68090167,0.73237485,-0.68090167,0.73237485,0,0)"
       width="337.17838"
       x="97.176994"
       y="399.45172"
       id="rect7"
       style="stroke-width:0.557412" />
    <path
       class="cls-3"
       d="M -183.88775,820.47229 -344.43096,647.79273 a 48.790965,52.479347 0 0 1 0,-74.30245 l 160.54321,-172.67957 a 48.415237,52.075216 0 0 1 6.28001,-5.71557 48.84464,52.53708 0 0 0 -62.74656,5.71557 l -160.54321,172.67957 a 48.898316,52.594814 0 0 0 0,74.30245 l 160.54321,172.67956 a 48.84464,52.53708 0 0 0 62.74656,5.71558 48.415237,52.075216 0 0 1 -6.28001,-5.71558 z"
       id="path10"
       style="stroke-width:0.556673" />
    <path
       class="cls-3"
       d="m -132.0373,630.29961 h -169.50699 a 10.735086,11.546611 0 0 1 0,-23.09322 h 169.50699 a 10.735086,11.546611 0 1 1 0,23.09322 z"
       id="path15"
       style="stroke-width:0.556673" />
    <path
       class="cls-5"
       d="m -121.08751,622.15925 h -169.45332 a 10.735086,11.546611 0 0 1 0,-23.09322 h 169.45332 a 10.735086,11.546611 0 1 1 0,23.09322 z"
       id="path16"
       style="stroke-width:0.556673" />
    <rect
       class="cls-6"
       height="79.420021"
       rx="26.978729"
       ry="26.978729"
       transform="matrix(0.68090167,-0.73237485,0.68090167,0.73237485,0,0)"
       width="53.957458"
       x="-453.88092"
       y="285.28442"
       id="rect29"
       style="stroke-width:0.557412" />
    <rect
       class="cls-6"
       height="148.37186"
       rx="26.978729"
       ry="26.978729"
       transform="matrix(0.68090167,0.73237485,-0.68090167,0.73237485,0,0)"
       width="53.957458"
       x="375.64661"
       y="442.2901"
       id="rect30"
       style="stroke-width:0.557412" />
  </g>
</svg>
